<svg width="676" height="128" viewBox="0 0 676 128" fill="none" xmlns="http://www.w3.org/2000/svg">
<g clip-path="url(#clip0_161_10987)">
<path d="M18.2367 25.1176H0.484375V102.059H55.0346V87.0588H18.2367V25.1176ZM94.1251 72.7647H108.586V86.2353C104.471 87.5882 100.121 88.2941 95.771 88.2353C79.7821 88.2353 74.4329 80.1176 74.4329 63.5882C74.4329 47.8235 79.4882 38.5882 95.4771 38.5882C104.353 38.5882 109.409 41.3529 113.641 46.7059L124.692 36.5882C117.991 26.9412 106.175 24 95.1244 24C70.2593 24 57.1508 37.5882 57.1508 63.4706C57.1508 89.2353 68.9661 103.235 94.948 103.235C106.881 103.235 118.579 100.176 124.868 95.7647V58.4118H94.0075V72.7647H94.1251Z" fill="#E532AF"/>
<path d="M18.2367 25.1176H0.484375V102.059H55.0346V87.0588H18.2367V25.1176ZM94.1251 72.7647H108.586V86.2353C104.471 87.5882 100.121 88.2941 95.771 88.2353C79.7821 88.2353 74.4329 80.1176 74.4329 63.5882C74.4329 47.8235 79.4882 38.5882 95.4771 38.5882C104.353 38.5882 109.409 41.3529 113.641 46.7059L124.692 36.5882C117.991 26.9412 106.175 24 95.1244 24C70.2593 24 57.1508 37.5882 57.1508 63.4706C57.1508 89.2353 68.9661 103.235 94.948 103.235C106.881 103.235 118.579 100.176 124.868 95.7647V58.4118H94.0075V72.7647H94.1251Z" fill="white"/>
<path d="M192.793 102.086C177.862 102.086 170.867 92.733 170.867 80.6153V25.2036H184.035V80.6153C184.035 87.2624 187.62 90.6153 194.086 90.6153H208.429C215.189 90.6153 218.422 87.2624 218.422 80.6153V25.2036H231.707V80.6153C231.707 92.6153 224.712 102.086 209.664 102.086H192.793ZM258.924 102.086C250.988 102.086 245.874 97.2036 245.874 88.4389V25.2036H258.688V87.0271C258.688 89.733 259.982 91.2036 262.627 91.2036H269.916L264.449 102.145H258.924V102.086ZM293.37 102.086C280.791 102.086 274.501 95.7918 274.501 83.4389V28.733H287.316V45.7918H309.359L303.892 56.9683H287.316V83.4389C287.316 88.5565 289.902 91.1448 294.428 91.1448H309.888L304.304 102.086H293.37ZM315.296 102.086V65.2036C315.296 54.2624 322.409 45.8506 334.988 45.8506H350.624L345.04 57.0271H336.517C332.167 56.733 328.405 59.9683 328.111 64.3212V102.086H315.296ZM366.79 102.086C355.151 102.086 348.861 94.4977 348.861 85.1448C348.861 75.5565 355.151 68.2036 366.79 68.2036H387.54V64.4977C387.54 59.3801 385.071 56.6742 379.722 56.6742H353.152L358.501 45.8506H379.722C393.124 45.8506 400.119 52.4977 400.119 64.4977V102.145L366.79 102.086ZM367.848 78.4977C364.615 78.3801 361.852 80.9683 361.793 84.2036C361.793 84.4389 361.793 84.733 361.852 84.9683C361.499 88.1448 363.792 91.0271 367.025 91.3212C367.26 91.3212 367.554 91.3801 367.789 91.3801H387.599V78.4389H367.848V78.4977ZM446.087 102.086C426.513 102.086 410.289 88.4389 410.289 63.733C410.289 39.6153 425.69 25.3801 446.087 25.1448H471.952L466.25 36.7918H448.909C432.097 36.7918 423.868 47.0859 423.868 63.733C423.868 80.3801 431.803 90.5565 448.909 90.5565H460.783V70.0271H440.503L446.205 58.8506H473.598V102.027L446.087 102.086ZM507.221 102.086C490.174 102.086 480.769 89.2624 480.769 73.2624C480.769 57.6153 490.586 44.3212 508.279 44.3212C525.973 44.3212 535.79 56.2036 535.79 73.733V79.5565H494.054C494.818 86.3801 500.696 91.4977 507.574 91.3212H532.263L526.796 102.145L507.221 102.086ZM522.681 68.8506C521.976 60.0859 517.214 55.2036 508.338 55.2036C500.696 54.8506 494.23 60.7918 493.878 68.4389V68.8506H522.681ZM559.597 102.086C547.958 102.086 541.668 94.4977 541.668 85.1448C541.668 75.5565 547.958 68.2036 559.597 68.2036H580.347V64.4977C580.347 59.3801 577.878 56.6742 572.529 56.6742H545.959L551.308 45.8506H572.529C585.931 45.8506 592.926 52.4977 592.926 64.4977V102.145L559.597 102.086ZM560.713 78.4977C557.48 78.3801 554.718 80.9683 554.659 84.2036C554.659 84.4977 554.659 84.733 554.718 85.0271C554.365 88.2036 556.657 91.0859 559.89 91.3801C560.126 91.3801 560.42 91.4389 560.655 91.4389H580.464V78.4977H560.713ZM604.036 102.086V65.2036C604.036 54.2624 611.149 45.8506 623.728 45.8506H639.365L633.78 57.0271H625.257C620.907 56.733 617.145 59.9683 616.851 64.3212C616.792 64.733 616.851 65.1448 616.851 65.5565V102.086H604.036ZM654.413 25.0859V27.6153H648.417V44.6742H645.302V27.6153H639.365V25.0859H654.413ZM675.516 25.0859V44.6742H672.459V27.5565H672.165L667.58 44.6742H663.407L658.704 27.5565H658.469V44.6742H655.353V25.0859H660.938L665.523 42.2036H665.758L670.167 25.0859H675.516Z" fill="url(#paint0_linear_161_10987)"/>
<path d="M192.793 102.086C177.862 102.086 170.867 92.733 170.867 80.6153V25.2036H184.035V80.6153C184.035 87.2624 187.62 90.6153 194.086 90.6153H208.429C215.189 90.6153 218.422 87.2624 218.422 80.6153V25.2036H231.707V80.6153C231.707 92.6153 224.712 102.086 209.664 102.086H192.793ZM258.924 102.086C250.988 102.086 245.874 97.2036 245.874 88.4389V25.2036H258.688V87.0271C258.688 89.733 259.982 91.2036 262.627 91.2036H269.916L264.449 102.145H258.924V102.086ZM293.37 102.086C280.791 102.086 274.501 95.7918 274.501 83.4389V28.733H287.316V45.7918H309.359L303.892 56.9683H287.316V83.4389C287.316 88.5565 289.902 91.1448 294.428 91.1448H309.888L304.304 102.086H293.37ZM315.296 102.086V65.2036C315.296 54.2624 322.409 45.8506 334.988 45.8506H350.624L345.04 57.0271H336.517C332.167 56.733 328.405 59.9683 328.111 64.3212V102.086H315.296ZM366.79 102.086C355.151 102.086 348.861 94.4977 348.861 85.1448C348.861 75.5565 355.151 68.2036 366.79 68.2036H387.54V64.4977C387.54 59.3801 385.071 56.6742 379.722 56.6742H353.152L358.501 45.8506H379.722C393.124 45.8506 400.119 52.4977 400.119 64.4977V102.145L366.79 102.086ZM367.848 78.4977C364.615 78.3801 361.852 80.9683 361.793 84.2036C361.793 84.4389 361.793 84.733 361.852 84.9683C361.499 88.1448 363.792 91.0271 367.025 91.3212C367.26 91.3212 367.554 91.3801 367.789 91.3801H387.599V78.4389H367.848V78.4977ZM446.087 102.086C426.513 102.086 410.289 88.4389 410.289 63.733C410.289 39.6153 425.69 25.3801 446.087 25.1448H471.952L466.25 36.7918H448.909C432.097 36.7918 423.868 47.0859 423.868 63.733C423.868 80.3801 431.803 90.5565 448.909 90.5565H460.783V70.0271H440.503L446.205 58.8506H473.598V102.027L446.087 102.086ZM507.221 102.086C490.174 102.086 480.769 89.2624 480.769 73.2624C480.769 57.6153 490.586 44.3212 508.279 44.3212C525.973 44.3212 535.79 56.2036 535.79 73.733V79.5565H494.054C494.818 86.3801 500.696 91.4977 507.574 91.3212H532.263L526.796 102.145L507.221 102.086ZM522.681 68.8506C521.976 60.0859 517.214 55.2036 508.338 55.2036C500.696 54.8506 494.23 60.7918 493.878 68.4389V68.8506H522.681ZM559.597 102.086C547.958 102.086 541.668 94.4977 541.668 85.1448C541.668 75.5565 547.958 68.2036 559.597 68.2036H580.347V64.4977C580.347 59.3801 577.878 56.6742 572.529 56.6742H545.959L551.308 45.8506H572.529C585.931 45.8506 592.926 52.4977 592.926 64.4977V102.145L559.597 102.086ZM560.713 78.4977C557.48 78.3801 554.718 80.9683 554.659 84.2036C554.659 84.4977 554.659 84.733 554.718 85.0271C554.365 88.2036 556.657 91.0859 559.89 91.3801C560.126 91.3801 560.42 91.4389 560.655 91.4389H580.464V78.4977H560.713ZM604.036 102.086V65.2036C604.036 54.2624 611.149 45.8506 623.728 45.8506H639.365L633.78 57.0271H625.257C620.907 56.733 617.145 59.9683 616.851 64.3212C616.792 64.733 616.851 65.1448 616.851 65.5565V102.086H604.036ZM654.413 25.0859V27.6153H648.417V44.6742H645.302V27.6153H639.365V25.0859H654.413ZM675.516 25.0859V44.6742H672.459V27.5565H672.165L667.58 44.6742H663.407L658.704 27.5565H658.469V44.6742H655.353V25.0859H660.938L665.523 42.2036H665.758L670.167 25.0859H675.516Z" fill="white"/>
</g>
<defs>
<linearGradient id="paint0_linear_161_10987" x1="170.867" y1="63.6153" x2="675.516" y2="63.6153" gradientUnits="userSpaceOnUse">
<stop stop-color="#E531AF"/>
<stop offset="1" stop-color="#EB81A6"/>
</linearGradient>
<clipPath id="clip0_161_10987">
<rect width="675.033" height="127.235" fill="white" transform="translate(0.484375)"/>
</clipPath>
</defs>
</svg>
